<svg xmlns="http://www.w3.org/2000/svg" width="158" height="38" fill="none"><path fill="#61A0FF" d="M15.997 1.655A3.754 3.754 0 0 1 19.11 0h14.22c3.007 0 4.794 3.36 3.112 5.854L24.394 23.71a3.755 3.755 0 0 1-3.112 1.655H7.062c-3.008 0-4.795-3.36-3.113-5.854L15.997 1.655z"/><path fill="#0260EB" d="M20.129 27.717c-1.248 0-2.414.62-3.112 1.655l-1.563 2.316c-1.682 2.494.104 5.854 3.112 5.854H33.89c1.248 0 2.415-.62 3.113-1.654L49.05 18.03c1.683-2.493-.104-5.854-3.112-5.854h-8.937c-1.248 0-2.415.62-3.112 1.655l-8.253 12.232a3.754 3.754 0 0 1-3.112 1.654h-2.395z"/><path fill="#F2F9FE" d="M73.648 11.481v2.046h-6.49v4.51h5.06v2.046h-5.06v6.688H64.65v-15.29h8.998zm3.6 1.562c-.455 0-.836-.154-1.144-.462a1.554 1.554 0 0 1-.462-1.144c0-.455.154-.836.462-1.144.308-.308.69-.462 1.144-.462.44 0 .814.154 1.122.462.308.308.462.69.462 1.144 0 .455-.154.836-.462 1.144a1.528 1.528 0 0 1-1.122.462zm1.232 1.606v12.122h-2.508V14.649h2.508zm9.409-.198c.953 0 1.804.198 2.552.594a4.208 4.208 0 0 1 1.782 1.76c.425.777.638 1.716.638 2.816v7.15h-2.486v-6.776c0-1.085-.272-1.914-.814-2.486-.543-.587-1.284-.88-2.222-.88-.939 0-1.687.293-2.244.88-.543.572-.814 1.4-.814 2.486v6.776h-2.508V14.649h2.508v1.386a4.17 4.17 0 0 1 1.562-1.166 5.105 5.105 0 0 1 2.046-.418zm7.335 6.204c0-1.217.25-2.295.748-3.234.513-.939 1.203-1.665 2.068-2.178a5.539 5.539 0 0 1 2.904-.792c.953 0 1.782.19 2.486.572.719.367 1.291.829 1.716 1.386v-1.76h2.53v12.122h-2.53v-1.804c-.425.572-1.005 1.049-1.738 1.43-.733.381-1.569.572-2.508.572a5.386 5.386 0 0 1-2.86-.792c-.865-.543-1.555-1.29-2.068-2.244-.499-.968-.748-2.06-.748-3.278zm9.922.044c0-.836-.176-1.562-.528-2.178-.337-.616-.785-1.085-1.342-1.408a3.54 3.54 0 0 0-1.804-.484 3.54 3.54 0 0 0-1.804.484c-.557.308-1.012.77-1.364 1.386-.337.601-.506 1.32-.506 2.156 0 .836.169 1.57.506 2.2.352.63.807 1.115 1.364 1.452a3.618 3.618 0 0 0 1.804.484 3.54 3.54 0 0 0 1.804-.484c.557-.323 1.005-.792 1.342-1.408.352-.63.528-1.364.528-2.2zm11.94-6.248c.953 0 1.804.198 2.552.594a4.205 4.205 0 0 1 1.782 1.76c.425.777.638 1.716.638 2.816v7.15h-2.486v-6.776c0-1.085-.271-1.914-.814-2.486-.543-.587-1.283-.88-2.222-.88-.939 0-1.687.293-2.244.88-.543.572-.814 1.4-.814 2.486v6.776h-2.508V14.649h2.508v1.386a4.17 4.17 0 0 1 1.562-1.166 5.103 5.103 0 0 1 2.046-.418zm7.335 6.248c0-1.247.25-2.34.748-3.278.514-.953 1.218-1.687 2.112-2.2.895-.513 1.922-.77 3.08-.77 1.467 0 2.677.352 3.63 1.056.968.69 1.621 1.68 1.958 2.97h-2.706c-.22-.601-.572-1.07-1.056-1.408-.484-.337-1.092-.506-1.826-.506-1.026 0-1.848.367-2.464 1.1-.601.719-.902 1.73-.902 3.036 0 1.305.301 2.325.902 3.058.616.733 1.438 1.1 2.464 1.1 1.452 0 2.413-.638 2.882-1.914h2.706c-.352 1.232-1.012 2.215-1.98 2.948-.968.719-2.17 1.078-3.608 1.078-1.158 0-2.185-.257-3.08-.77a5.655 5.655 0 0 1-2.112-2.2c-.498-.953-.748-2.053-.748-3.3zm15.304-7.656c-.455 0-.836-.154-1.144-.462a1.554 1.554 0 0 1-.462-1.144c0-.455.154-.836.462-1.144a1.553 1.553 0 0 1 1.144-.462c.44 0 .814.154 1.122.462.308.308.462.69.462 1.144 0 .455-.154.836-.462 1.144a1.528 1.528 0 0 1-1.122.462zm1.232 1.606v12.122h-2.508V14.649h2.508zm2.456 6.006c0-1.217.25-2.295.748-3.234.514-.939 1.203-1.665 2.068-2.178a5.539 5.539 0 0 1 2.904-.792c.954 0 1.782.19 2.486.572.719.367 1.291.829 1.716 1.386v-1.76h2.53v12.122h-2.53v-1.804c-.425.572-1.004 1.049-1.738 1.43-.733.381-1.569.572-2.508.572a5.388 5.388 0 0 1-2.86-.792c-.865-.543-1.554-1.29-2.068-2.244-.498-.968-.748-2.06-.748-3.278zm9.922.044c0-.836-.176-1.562-.528-2.178-.337-.616-.784-1.085-1.342-1.408a3.537 3.537 0 0 0-1.804-.484 3.54 3.54 0 0 0-1.804.484c-.557.308-1.012.77-1.364 1.386-.337.601-.506 1.32-.506 2.156 0 .836.169 1.57.506 2.2.352.63.807 1.115 1.364 1.452a3.62 3.62 0 0 0 1.804.484c.646 0 1.247-.161 1.804-.484.558-.323 1.005-.792 1.342-1.408.352-.63.528-1.364.528-2.2z"/></svg>